<svg xmlns="http://www.w3.org/2000/svg" viewBox="0 0 512 512"><defs><style>.cls-1{fill:none;}.cls-2{fill:#004ecd;}.cls-3{fill:#103b98;}@media (prefers-color-scheme: dark){.cls-1{fill:#ffffff;}.cls-2{fill:#6fa6ff;}.cls-3{fill:#2e68e7;}}</style></defs><g id="レイヤー_2" data-name="レイヤー 2"><g id="レイヤー_1-2" data-name="レイヤー 1"><rect class="cls-1" x="51.22" y="238" width="37.23" height="36"/><rect class="cls-1" x="125.68" y="238" width="37.23" height="36"/><rect class="cls-1" x="423.55" y="238" width="37.23" height="36"/><rect class="cls-1" x="349.08" y="238" width="37.23" height="36"/><rect class="cls-1" x="274.62" y="238" width="37.23" height="36"/><rect class="cls-1" x="200.15" y="238" width="37.23" height="36"/><path class="cls-2" d="M51.22,238H88.45v18h37.23V238h37.24v18h37.23V238h37.23v18h37.24V238h37.23v18h37.23V238h37.24v18h37.23V238h37.23v18H498V238h14V120C512,54,458,0,392,0H120C54,0,0,54,0,120V238H14v18H51.22Z"/><path class="cls-3" d="M498,256H460.78v18H423.55V256H386.32v18H349.08V256H311.85v18H274.62V256H237.38v18H200.15V256H162.92v18H125.68V256H88.45v18H51.22V256H14v18H0V392c0,66,54,120,120,120H392c66,0,120-54,120-120V274H498Z"/></g></g></svg>
